# xmcd
#
# Track frame offsets:
#	150
#	9988
#	21497
#	32230
#	40308
#	49399
#	59766
#	69479
#	79552
#	91350
#	103441
#	113769
#	123941
#	135109
#	146502
#	157903
#	167526
#	177149
#	189553
#	201884
#	212580
#	224296
#	236109
#	248530
#
# Disc length: 3473 seconds
#
# Revision: 0
# Processed by: cddbd v1.5.2PL0 Copyright (c) Steve Scherf et al.
# Submitted via: EasyCDDAExtractor 16.0.1.1
#
DISCID=4f0d8f18
DTITLE=Skeeter Davis - Singin' In The Summer Sun and What Does It Take
DYEAR=1966
DGENRE=Country
TTITLE0=Dixie Cup Of Sand
TTITLE1=Under The Boardwalk
TTITLE2=That Warm Summer Night
TTITLE3=Please Don't Talk To The Lifeguard
TTITLE4=(Theme From) A Summer Place
TTITLE5=Summer Sunshine
TTITLE6=Summertime
TTITLE7=Remember (Walkin' In The Sand)
TTITLE8=A Summer Song
TTITLE9=Sunglasses
TTITLE10=That Summer Sunset
TTITLE11=Singin' In The Summer Sun
TTITLE12=I  O  U  (A Broken Heart)
TTITLE13=I'm Looking (For A World)
TTITLE14=I Can't See Me Without You
TTITLE15=Sad Sad World
TTITLE16=He Doesn't Love Me Anymore
TTITLE17=Fuel To The Flame
TTITLE18=Something Comes Over Me
TTITLE19=It's A Crazy World
TTITLE20=Set Him Free
TTITLE21=What I Go Thru (To Keep Holding On To You)
TTITLE22=You Taught Me Everything That I Know
TTITLE23=What Does It Take (To Keep A Man Like You Satisfied)
EXTD=
EXTT0=
EXTT1=
EXTT2=
EXTT3=
EXTT4=
EXTT5=
EXTT6=
EXTT7=
EXTT8=
EXTT9=
EXTT10=
EXTT11=
EXTT12=
EXTT13=
EXTT14=
EXTT15=
EXTT16=
EXTT17=
EXTT18=
EXTT19=
EXTT20=
EXTT21=
EXTT22=
EXTT23=
PLAYORDER=
